<svg width="244" height="216" viewBox="0 0 244 216" fill="none" xmlns="http://www.w3.org/2000/svg">
<ellipse opacity="0.3" cx="122.486" cy="108" rx="102.072" ry="108" fill="#D9D9D9"/>
<path d="M177.363 129.64C177.363 129.64 182.774 128.209 187.411 128.209C189.933 128.209 191.908 128.334 193.185 128.448C193.627 128.487 194.036 128.71 194.323 129.066C194.611 129.423 194.754 129.885 194.721 130.353L194.561 132.707L177.363 129.64Z" fill="#00394D"/>
<path d="M13.6323 200.33H224.9L216.204 168.843H27.3525L13.6323 200.33Z" fill="#00394D"/>
<g opacity="0.78">
<path d="M13.6323 200.33H224.9L216.204 168.843H27.3525L13.6323 200.33Z" fill="#0D0D0D"/>
</g>
<path d="M243.014 191.206C242.571 193.525 241.928 195.428 241.069 196.703C235.143 205.429 219.942 205.157 219.942 205.157C220.039 202.036 219.834 198.913 219.33 195.836C217.77 186.044 212.495 172.134 195.142 172.782C177.561 173.441 172.969 188.343 171.813 197.696C171.499 200.168 171.393 202.665 171.497 205.157H68.0649C67.9834 203.076 67.7723 201.002 67.4327 198.95C65.8516 188.907 60.3116 170.368 41.0125 172.166C23.5801 173.796 20.3504 189.629 19.9651 198.751C19.856 200.888 19.9088 203.03 20.1232 205.157C20.1232 205.157 10.375 203.653 5.4358 201.427C4.75677 201.122 4.14973 200.663 3.65812 200.081C3.1665 199.499 2.80246 198.81 2.59201 198.062L2.21809 196.745L0.15266 189.482C0.00772768 188.97 -0.03464 188.431 0.0282621 187.9C0.0911643 187.37 0.257954 186.859 0.517981 186.4L2.0991 183.62C1.8515 182.046 1.76871 180.448 1.85222 178.855C1.99091 175.605 2.83001 171.352 5.82248 168.237L5.84245 168.217C7.2618 166.773 8.97923 165.7 10.8587 165.08C25.2297 160.106 53.3683 154.514 56.7263 153.355C63.4761 151.151 69.9855 148.194 76.1452 144.535C92.1932 134.983 117.14 126.577 136.918 125.819C168.517 124.606 197 126.644 242.097 149.541C242.097 149.541 242.166 150.064 242.275 150.994V151.004C242.58 153.627 243.203 159.49 243.618 166.241C244.131 174.747 244.298 184.654 243.014 191.206Z" fill="#DEE8F5"/>
<path d="M14.6023 171.696C14.6023 174.214 13.3776 177.778 1.85156 178.854C1.99026 175.604 2.82936 171.351 5.82182 168.237L5.8418 168.216C6.35524 168.216 14.6023 169.167 14.6023 171.696Z" fill="#F3F5FD"/>
<path d="M243.617 166.24H228.377C227.123 166.24 224.219 165.112 225.385 159.594C226.54 154.076 242.274 150.995 242.274 150.995V151.005C242.58 153.627 243.202 159.49 243.617 166.24Z" fill="#FD5D76"/>
<g opacity="0.76">
<path d="M185.887 134.21L184.417 150L137.155 152.08L139.378 128.263C140.395 128.232 141.422 128.211 142.459 128.211C163.248 128.211 174.895 130.5 185.887 134.21Z" fill="#0D0D0D"/>
</g>
<g opacity="0.76">
<path d="M198.609 149.405L186.688 149.907L188.08 134.983C192.411 136.566 196.596 138.564 200.584 140.951C204.317 143.187 202.895 149.227 198.609 149.405Z" fill="#0D0D0D"/>
</g>
<path d="M127.286 160.514H118.01C117.53 160.514 117.141 160.926 117.141 161.434C117.141 161.942 117.53 162.354 118.01 162.354H127.286C127.766 162.354 128.155 161.942 128.155 161.434C128.155 160.926 127.766 160.514 127.286 160.514Z" fill="#00394D"/>
<path d="M20.1234 205.157C20.1234 205.157 10.3751 203.653 5.43597 201.427C4.75693 201.122 4.1499 200.663 3.65829 200.081C3.16667 199.499 2.80262 198.81 2.59218 198.062L2.21826 196.745C5.64567 197.445 11.2653 198.281 19.9667 198.751C19.8571 200.888 19.9095 203.03 20.1234 205.157Z" fill="#00394D"/>
<path d="M171.813 197.697C171.499 200.169 171.393 202.666 171.497 205.159H68.0648C67.9834 203.077 67.7722 201.003 67.4326 198.951C100.836 198.636 143.2 198.062 171.813 197.697Z" fill="#00394D"/>
<path d="M243.014 191.206C242.571 193.525 241.928 195.428 241.069 196.703C235.143 205.429 219.942 205.157 219.942 205.157C220.039 202.036 219.834 198.913 219.33 195.836C228.575 194.895 238.135 193.432 243.014 191.206Z" fill="#00394D"/>
<path d="M133.327 200.968L132.527 200.94L135.597 151.687L136.397 151.716L133.327 200.968Z" fill="#00394D"/>
<path d="M73.9184 154.86H73.1167V201.427H73.9184V154.86Z" fill="#00394D"/>
<g opacity="0.76">
<path d="M137.105 128.358L134.883 152.175L73.8923 154.84C73.6592 154.852 73.429 154.782 73.2366 154.643C73.0443 154.503 72.9002 154.301 72.8264 154.067C72.7527 153.833 72.7532 153.579 72.8279 153.345C72.9026 153.112 73.0475 152.91 73.2404 152.771C81.8234 146.678 105.163 130.082 137.105 128.358Z" fill="#0D0D0D"/>
</g>
<path d="M71.8944 153.153H76.7248C78.1342 153.153 79.4859 153.746 80.4825 154.8C81.4791 155.855 82.039 157.285 82.039 158.776C82.039 159.237 81.866 159.679 81.558 160.005C81.25 160.331 80.8322 160.514 80.3966 160.514H71.8944C71.4588 160.514 71.041 160.331 70.733 160.005C70.425 159.679 70.252 159.237 70.252 158.776V154.891C70.252 154.43 70.425 153.988 70.733 153.662C71.041 153.336 71.4588 153.153 71.8944 153.153Z" fill="#00394D"/>
<path d="M43.4774 215.758C54.2277 215.758 62.9426 206.537 62.9426 195.162C62.9426 183.787 54.2277 174.566 43.4774 174.566C32.7271 174.566 24.0122 183.787 24.0122 195.162C24.0122 206.537 32.7271 215.758 43.4774 215.758Z" fill="#0D0D0D"/>
<path d="M43.4774 181.984C45.9407 181.984 48.3487 182.757 50.3969 184.205C52.4451 185.653 54.0414 187.711 54.9841 190.119C55.9268 192.527 56.1734 195.176 55.6928 197.733C55.2123 200.289 54.0261 202.637 52.2842 204.48C50.5424 206.323 48.3232 207.578 45.9072 208.087C43.4912 208.595 40.987 208.334 38.7112 207.337C36.4354 206.339 34.4902 204.65 33.1217 202.483C31.7531 200.316 31.0227 197.768 31.0227 195.162C31.0264 191.668 32.3398 188.318 34.6747 185.848C37.0096 183.377 40.1753 181.988 43.4774 181.984ZM43.4774 180.599C40.7551 180.599 38.094 181.453 35.8305 183.053C33.567 184.653 31.8028 186.928 30.7611 189.589C29.7193 192.25 29.4468 195.178 29.9779 198.003C30.509 200.828 31.8199 203.423 33.7449 205.46C35.6698 207.497 38.1224 208.884 40.7923 209.446C43.4623 210.008 46.2298 209.719 48.7449 208.617C51.2599 207.515 53.4095 205.648 54.9219 203.253C56.4343 200.858 57.2415 198.042 57.2414 195.162C57.2414 193.249 56.8854 191.356 56.1937 189.589C55.502 187.822 54.4881 186.216 53.21 184.864C51.9319 183.512 50.4146 182.439 48.7446 181.707C47.0747 180.975 45.2849 180.599 43.4774 180.599Z" fill="#F3F5FD"/>
<path d="M43.4775 198.632C45.2886 198.632 46.7568 197.078 46.7568 195.162C46.7568 193.246 45.2886 191.692 43.4775 191.692C41.6664 191.692 40.1982 193.246 40.1982 195.162C40.1982 197.078 41.6664 198.632 43.4775 198.632Z" fill="#F3F5FD"/>
<path d="M47.2764 181.291L44.132 195.162H42.823L39.6782 181.291H47.2764Z" fill="#F3F5FD"/>
<path d="M39.6782 209.033L42.823 195.162H44.132L47.2764 209.033H39.6782Z" fill="#F3F5FD"/>
<path d="M52.7718 205.738L43.1411 195.756L43.8138 194.568L56.676 198.841L52.7718 205.738Z" fill="#F3F5FD"/>
<path d="M34.1831 184.586L43.8137 194.568L43.141 195.756L30.2788 191.484L34.1831 184.586Z" fill="#F3F5FD"/>
<path d="M30.2788 198.841L43.141 194.568L43.8137 195.756L34.1831 205.738L30.2788 198.841Z" fill="#F3F5FD"/>
<path d="M56.676 191.484L43.8138 195.756L43.1411 194.568L52.7718 184.586L56.676 191.484Z" fill="#F3F5FD"/>
<path d="M43.4775 196.944C44.4075 196.944 45.1615 196.146 45.1615 195.162C45.1615 194.178 44.4075 193.38 43.4775 193.38C42.5474 193.38 41.7935 194.178 41.7935 195.162C41.7935 196.146 42.5474 196.944 43.4775 196.944Z" fill="#0D0D0D"/>
<path d="M195.572 215.758C206.322 215.758 215.037 206.537 215.037 195.162C215.037 183.787 206.322 174.566 195.572 174.566C184.821 174.566 176.106 183.787 176.106 195.162C176.106 206.537 184.821 215.758 195.572 215.758Z" fill="#0D0D0D"/>
<path d="M195.572 181.984C198.035 181.984 200.443 182.757 202.491 184.205C204.539 185.653 206.136 187.711 207.078 190.119C208.021 192.527 208.268 195.176 207.787 197.733C207.306 200.289 206.12 202.637 204.378 204.48C202.637 206.323 200.417 207.578 198.001 208.087C195.585 208.595 193.081 208.334 190.805 207.337C188.53 206.339 186.584 204.65 185.216 202.483C183.847 200.316 183.117 197.768 183.117 195.162C183.121 191.668 184.434 188.318 186.769 185.848C189.104 183.377 192.27 181.988 195.572 181.984ZM195.572 180.599C192.849 180.599 190.188 181.453 187.925 183.053C185.661 184.653 183.897 186.928 182.855 189.589C181.814 192.25 181.541 195.178 182.072 198.003C182.603 200.828 183.914 203.423 185.839 205.46C187.764 207.497 190.217 208.884 192.887 209.446C195.557 210.008 198.324 209.719 200.839 208.617C203.354 207.515 205.504 205.648 207.016 203.253C208.529 200.858 209.336 198.042 209.336 195.162C209.336 193.249 208.98 191.356 208.288 189.589C207.596 187.822 206.582 186.216 205.304 184.864C204.026 183.512 202.509 182.439 200.839 181.707C199.169 180.975 197.379 180.599 195.572 180.599Z" fill="#F3F5FD"/>
<path d="M195.572 198.632C197.383 198.632 198.851 197.078 198.851 195.162C198.851 193.246 197.383 191.692 195.572 191.692C193.761 191.692 192.292 193.246 192.292 195.162C192.292 197.078 193.761 198.632 195.572 198.632Z" fill="#F3F5FD"/>
<path d="M199.371 181.291L196.226 195.162H194.917L191.772 181.291H199.371Z" fill="#F3F5FD"/>
<path d="M191.772 209.033L194.917 195.162H196.226L199.371 209.033H191.772Z" fill="#F3F5FD"/>
<path d="M204.866 205.738L195.235 195.756L195.908 194.568L208.77 198.841L204.866 205.738Z" fill="#F3F5FD"/>
<path d="M186.277 184.586L195.908 194.568L195.235 195.756L182.373 191.484L186.277 184.586Z" fill="#F3F5FD"/>
<path d="M182.373 198.841L195.235 194.568L195.908 195.756L186.277 205.738L182.373 198.841Z" fill="#F3F5FD"/>
<path d="M208.77 191.484L195.908 195.756L195.235 194.568L204.866 184.586L208.77 191.484Z" fill="#F3F5FD"/>
<path d="M195.572 196.944C196.502 196.944 197.256 196.146 197.256 195.162C197.256 194.178 196.502 193.38 195.572 193.38C194.642 193.38 193.888 194.178 193.888 195.162C193.888 196.146 194.642 196.944 195.572 196.944Z" fill="#0D0D0D"/>
<path d="M137.104 128.358L139.376 128.264L137.154 152.08L134.882 152.174L137.104 128.358Z" fill="#00394D"/>
<path d="M183.733 175.933L182.843 176.631L184.944 149.87L185.774 149.943L183.733 175.933Z" fill="#00394D"/>
<path d="M185.887 134.21L188.08 134.983L186.687 149.907L184.416 150.001L185.887 134.21Z" fill="#00394D"/>
<path d="M165.203 88.0747C165.2 88.0454 165.2 88.016 165.2 87.9867C165.2 87.4525 165.22 86.8743 165.27 86.2403L160.84 85.3687C160.911 86.3578 160.901 87.3516 160.809 88.3389C160.792 88.5091 160.773 88.6823 160.751 88.8584C160.56 90.2936 160.124 91.8051 159.167 92.6093H166.102C165.663 91.8022 165.217 90.4083 165.203 88.0747Z" fill="#E98862"/>
<path d="M167.785 83.8433C167.478 85.7184 166.511 87.4938 164.948 88.099C163.092 88.8178 161.718 88.8665 159.578 88.8665C156.659 88.8665 156.755 85.6448 156.673 82.3984C156.59 79.1388 156.836 75.6426 157.99 74.5068C160.292 72.2395 167.053 73.6753 167.875 77.4673C168.3 79.429 168.077 82.0582 167.785 83.8433Z" fill="#E98862"/>
<path d="M155.109 76.3915C155.109 76.3915 153.913 76.1088 154.24 74.8474C154.457 74.0106 155.471 74.1967 155.471 74.1967C155.471 74.1967 154.511 74.0106 154.511 73.1245C154.511 72.5669 154.917 71.6206 156.14 72.1613C157.575 72.7955 159.212 72.7139 160.456 72.4926C161.16 72.3295 161.875 72.2227 162.594 72.1733H162.598C163.425 72.158 164.249 72.2746 165.043 72.5193C167.267 73.2237 170.686 75.3431 169.919 80.1189C169.089 85.2804 166.118 87.5488 165.709 87.8626C164.941 88.4537 160.217 88.5734 159.749 88.0783C159.048 87.3369 158.667 84.3564 158.809 79.1638C156.873 78.841 155.543 78.701 155.543 78.701C155.543 78.701 153.934 78.765 153.934 77.5205C153.934 76.2761 155.109 76.3915 155.109 76.3915Z" fill="#0D0D0D"/>
<path d="M157.396 83.0145C157.366 83.4872 157.513 83.9534 157.805 84.3124C158.098 84.6714 158.512 84.8943 158.958 84.9328C159.404 84.9714 159.847 84.8225 160.19 84.5185C160.534 84.2144 160.75 83.7796 160.793 83.308C160.815 83.0713 160.792 82.8322 160.725 82.6051C160.658 82.378 160.548 82.1675 160.403 81.9861C160.258 81.8047 160.079 81.6561 159.878 81.5492C159.677 81.4423 159.458 81.3793 159.234 81.3639C158.019 81.3246 157.473 82.0222 157.396 83.0145Z" fill="#E98862"/>
<path d="M123.083 111.867L121.655 110.835C121.313 110.588 120.846 110.681 120.613 111.043L118.485 114.341C118.251 114.702 118.339 115.196 118.681 115.443L120.11 116.475C120.452 116.722 120.918 116.629 121.152 116.267L123.28 112.969C123.513 112.608 123.425 112.114 123.083 111.867Z" fill="#FAFAFA"/>
<path d="M123.807 111.631L122.068 111.114C121.868 111.055 121.654 111.083 121.473 111.191C121.292 111.299 121.158 111.478 121.102 111.69L120.903 112.441C120.875 112.546 120.866 112.656 120.879 112.764C120.891 112.873 120.923 112.977 120.973 113.073C121.024 113.168 121.092 113.251 121.173 113.319C121.254 113.386 121.347 113.436 121.446 113.465L121.882 113.594L122.748 113.853L123.183 113.982C123.383 114.041 123.598 114.014 123.779 113.906C123.961 113.798 124.094 113.619 124.151 113.407L124.351 112.652C124.406 112.441 124.38 112.214 124.278 112.023C124.176 111.831 124.007 111.69 123.807 111.631ZM123.627 112.247C123.611 112.307 123.577 112.359 123.531 112.397C123.484 112.434 123.427 112.454 123.369 112.453C123.345 112.453 123.322 112.45 123.299 112.444L122.101 112.089C122.039 112.07 121.986 112.029 121.951 111.972C121.916 111.915 121.901 111.847 121.91 111.78C121.919 111.712 121.95 111.651 121.999 111.606C122.047 111.562 122.109 111.537 122.173 111.537C122.196 111.537 122.22 111.54 122.242 111.546L123.443 111.904C123.477 111.913 123.508 111.93 123.536 111.952C123.563 111.975 123.586 112.003 123.603 112.035C123.62 112.067 123.631 112.102 123.635 112.139C123.639 112.175 123.636 112.212 123.627 112.247Z" fill="#1F2A37"/>
<path d="M122.445 115.359L122.713 114.349L122.622 114.322L123.058 112.676L122.194 112.419L120.958 117.088C120.925 117.209 120.94 117.339 120.999 117.449C121.057 117.558 121.154 117.639 121.268 117.673C121.325 117.69 121.385 117.695 121.443 117.688C121.502 117.681 121.559 117.661 121.61 117.63C121.662 117.6 121.707 117.559 121.744 117.51C121.78 117.461 121.807 117.404 121.823 117.344L121.982 116.743L122.073 116.77L122.297 115.924L122.206 115.897L122.356 115.332L122.445 115.359Z" fill="#1F2A37"/>
<path d="M124.195 110.557C124.433 109.642 124.13 108.757 123.518 108.579C122.906 108.401 122.218 108.998 121.98 109.913C121.742 110.827 122.045 111.713 122.657 111.891C123.269 112.069 123.957 111.472 124.195 110.557Z" stroke="#1F2A37" stroke-width="0.285346" stroke-miterlimit="10"/>
<path d="M121.261 110.316C121.261 110.316 123.441 111.504 125.793 111.504L126.553 107.522C126.553 107.522 124.319 105.388 123.514 105.608C122.848 105.79 123.315 106.47 123.912 107.101" fill="#E98862"/>
<path d="M121.261 110.316C121.261 110.316 123.441 111.504 125.793 111.504L126.553 107.522C126.553 107.522 124.319 105.388 123.514 105.608C122.848 105.79 123.315 106.47 123.912 107.101" fill="#E98862"/>
<path d="M148.135 211.097C147.521 205.633 147.521 205.07 147.521 204.885H153.346C153.346 204.867 153.346 204.843 153.346 204.813C153.367 205.27 153.66 208.053 153.921 210.369L148.135 211.097Z" fill="#E98862"/>
<path d="M171.345 211.834C171.345 211.834 171.326 205.451 171.326 204.886H177.151C177.151 205.45 177.17 211.814 177.17 211.814L171.345 211.834Z" fill="#E98862"/>
<path d="M164.264 214.218C164.108 214.217 163.953 214.182 163.809 214.115C163.666 214.048 163.537 213.951 163.431 213.829C163.325 213.707 163.244 213.563 163.193 213.406C163.141 213.25 163.121 213.083 163.133 212.918C163.15 212.689 163.229 212.47 163.359 212.286C163.49 212.103 163.667 211.963 163.871 211.882L170.651 209.48C170.782 209.434 170.922 209.418 171.059 209.434C171.197 209.451 171.329 209.498 171.448 209.573C172.38 210.258 173.495 210.608 174.629 210.571C175.512 210.505 176.36 210.177 177.075 209.626C177.138 209.571 177.215 209.536 177.295 209.526C177.376 209.516 177.458 209.53 177.531 209.566C177.605 209.603 177.667 209.662 177.71 209.735C177.754 209.807 177.777 209.892 177.776 209.978V213.487C177.776 213.59 177.757 213.693 177.72 213.788C177.682 213.884 177.627 213.971 177.558 214.044C177.489 214.117 177.406 214.175 177.316 214.214C177.225 214.253 177.129 214.273 177.031 214.273L164.264 214.218Z" fill="#00394D"/>
<path d="M141.037 214.218C140.881 214.217 140.726 214.182 140.583 214.115C140.439 214.048 140.311 213.951 140.204 213.829C140.098 213.707 140.017 213.563 139.966 213.406C139.915 213.25 139.895 213.083 139.907 212.918C139.924 212.689 140.002 212.47 140.133 212.286C140.263 212.103 140.441 211.963 140.644 211.882L147.424 209.48C147.556 209.434 147.695 209.418 147.832 209.434C147.97 209.451 148.102 209.498 148.221 209.573C149.153 210.258 150.268 210.608 151.402 210.571C152.285 210.505 153.133 210.177 153.849 209.626C153.912 209.571 153.988 209.537 154.069 209.526C154.149 209.516 154.231 209.53 154.305 209.567C154.378 209.603 154.44 209.662 154.484 209.735C154.527 209.807 154.55 209.892 154.55 209.978V213.487C154.55 213.59 154.531 213.693 154.493 213.788C154.455 213.884 154.401 213.971 154.331 214.044C154.262 214.117 154.18 214.175 154.089 214.214C153.999 214.253 153.902 214.273 153.804 214.273L141.037 214.218Z" fill="#00394D"/>
<path d="M168.445 209.715L178.672 209.388C177.426 189.22 173.571 123.454 173.571 123.454L152.468 124.834L152.251 126.398L152.177 126.375C149.882 139.246 148.244 152.765 146.418 165.808C146.12 167.934 145.969 170.08 145.965 172.229C145.943 184.246 145.965 197.605 145.985 209.554L156.247 209.739C156.215 197.142 157.052 183.373 157.414 170.737C159.142 160.758 160.196 150.322 162.023 140.239C163.784 161.172 166.6 189.795 168.445 209.715Z" fill="#262626"/>
<path d="M179.782 134.03C179.782 134.905 179.345 137.829 180.047 138.038C180.468 138.163 180.965 135.983 180.965 135.983" fill="#E98862"/>
<path d="M183.096 133.571C183.096 133.571 185.388 139.474 182.773 142.866C182.707 142.952 182.617 143.015 182.516 143.046C182.415 143.078 182.307 143.076 182.207 143.042C182.107 143.008 182.019 142.942 181.954 142.854C181.889 142.766 181.852 142.66 181.845 142.548C181.718 140.262 181.282 135.564 179.857 136.113V132.426" fill="#E98862"/>
<path d="M152.138 111.578C152.048 103.439 148.005 92.3539 157.207 91.9371C158.321 91.8863 163.755 91.8784 167.734 91.8784C170.407 91.8784 172.601 92.7463 173.869 94.0873C178.238 98.7102 172.875 106.588 172.875 112.754C172.875 118.92 175.51 121.681 175.316 124.845C175.011 129.818 152.174 128.643 151.01 125.818C149.813 122.902 152.244 121.107 152.138 111.578Z" fill="#053F53"/>
<path d="M178.407 134.669L175.883 116.676L169.623 98.6659L175.3 96.457L181.667 114.776C181.738 114.981 181.789 115.194 181.82 115.41L184.39 133.729L178.407 134.669Z" fill="#053F53"/>
<path d="M143.341 116.883C143.114 116.883 142.888 116.855 142.667 116.799L124.866 112.32L126.214 106.324L142.061 110.311L152.211 94.5146L157.028 97.9797L145.75 115.534C145.483 115.949 145.124 116.289 144.704 116.525C144.284 116.76 143.816 116.883 143.341 116.883Z" fill="#053F53"/>
<path d="M124.445 107.613C124.473 107.479 124.476 107.34 124.452 107.205C124.429 107.069 124.381 106.94 124.31 106.825C124.239 106.71 124.147 106.611 124.039 106.534C123.931 106.457 123.81 106.403 123.683 106.376C122.997 106.226 121.992 106.108 121.56 106.565C120.873 107.293 120.41 109.576 120.873 110.066C121.336 110.555 123.441 111.25 123.776 110.14C123.997 109.409 124.286 108.323 124.445 107.613Z" fill="#E98862"/>
<path d="M127.781 138.649C127.756 138.725 127.71 138.79 127.649 138.837C127.587 138.884 127.514 138.91 127.439 138.911C127.363 138.912 127.289 138.888 127.227 138.843C127.164 138.798 127.116 138.733 127.09 138.659C126.94 138.195 126.7 137.771 126.385 137.412C125.927 136.969 125.379 136.642 124.784 136.457C124.712 136.432 124.649 136.384 124.604 136.319C124.559 136.255 124.534 136.177 124.532 136.097C124.53 136.017 124.552 135.938 124.594 135.871C124.635 135.805 124.696 135.753 124.766 135.724C125.336 135.497 125.86 135.155 126.307 134.717C126.642 134.308 126.898 133.833 127.061 133.32C127.088 133.244 127.136 133.178 127.2 133.133C127.263 133.087 127.338 133.064 127.415 133.066C127.492 133.068 127.566 133.095 127.627 133.144C127.688 133.193 127.734 133.26 127.757 133.338C127.899 133.891 128.142 134.409 128.474 134.862C128.887 135.292 129.394 135.606 129.95 135.777C130.023 135.803 130.085 135.853 130.13 135.919C130.174 135.986 130.198 136.065 130.198 136.146C130.198 136.227 130.174 136.306 130.129 136.372C130.084 136.438 130.02 136.487 129.948 136.513C129.391 136.692 128.878 136.999 128.446 137.411C128.141 137.767 127.913 138.189 127.781 138.649Z" fill="white"/>
<path d="M120.981 142.838C120.964 142.89 120.932 142.935 120.89 142.967C120.847 142.999 120.797 143.017 120.745 143.018C120.693 143.018 120.642 143.002 120.599 142.971C120.556 142.94 120.523 142.896 120.505 142.844C120.401 142.525 120.236 142.232 120.019 141.985C119.704 141.68 119.326 141.455 118.916 141.328C118.867 141.31 118.824 141.277 118.793 141.232C118.762 141.188 118.745 141.135 118.743 141.079C118.742 141.024 118.757 140.97 118.785 140.924C118.814 140.878 118.855 140.843 118.904 140.822C119.297 140.666 119.657 140.431 119.965 140.129C120.196 139.847 120.372 139.52 120.485 139.166C120.503 139.114 120.537 139.069 120.58 139.038C120.624 139.006 120.676 138.99 120.729 138.992C120.781 138.993 120.832 139.012 120.875 139.045C120.917 139.079 120.948 139.126 120.964 139.179C121.062 139.56 121.23 139.917 121.458 140.229C121.742 140.525 122.092 140.742 122.475 140.859C122.525 140.877 122.568 140.911 122.599 140.957C122.63 141.002 122.647 141.057 122.647 141.113C122.647 141.169 122.63 141.223 122.599 141.269C122.568 141.314 122.525 141.349 122.475 141.367C122.091 141.49 121.738 141.701 121.441 141.985C121.229 142.23 121.072 142.521 120.981 142.838Z" fill="white"/>
<path d="M105.951 125.882L53.7983 125.715L54.0129 50.7515L90.0751 50.8671L106.117 67.9435L105.951 125.882Z" fill="white"/>
<path opacity="0.3" d="M90.0752 50.8672L90.0264 67.892L106.117 67.9436L90.0752 50.8672Z" fill="#053F53"/>
<path d="M106.445 67.9223C106.443 67.8916 106.437 67.8612 106.428 67.832C106.424 67.8208 106.422 67.8099 106.417 67.7986C106.401 67.7604 106.38 67.7255 106.352 67.6956L90.3108 50.6192C90.2826 50.5898 90.2496 50.566 90.2135 50.5489C90.2034 50.5444 90.1931 50.5404 90.1826 50.537C90.1547 50.5267 90.1257 50.5205 90.0962 50.5187C90.0892 50.5187 90.0829 50.5141 90.076 50.5141L54.0141 50.3999C53.926 50.3999 53.8415 50.4369 53.7792 50.5028C53.7169 50.5688 53.6819 50.6582 53.6819 50.7514L53.4663 125.713C53.4663 125.807 53.5013 125.896 53.5636 125.962C53.6259 126.028 53.7104 126.065 53.7985 126.065L105.949 126.233C106.037 126.233 106.122 126.196 106.184 126.13C106.246 126.064 106.281 125.975 106.281 125.882L106.447 67.9434C106.449 67.9368 106.445 67.9301 106.445 67.9223ZM90.4035 51.7168L97.8108 59.599L105.316 67.5885L90.3596 67.5403L90.4035 51.7168ZM54.1306 125.364L54.3432 51.1039L89.7408 51.2174L89.6933 67.8907C89.6933 67.9839 89.7283 68.0733 89.7906 68.1392C89.8529 68.2051 89.9374 68.2422 90.0255 68.2422L105.784 68.2928L105.62 125.528L54.1306 125.364Z" fill="#262626"/>
</svg>
