<svg width="244" height="232" viewBox="0 0 244 232" fill="none" xmlns="http://www.w3.org/2000/svg">
<ellipse opacity="0.3" cx="122" cy="116" rx="122" ry="116" fill="white"/>
<path d="M168.927 101.247C168.927 101.247 173.513 100.156 177.444 100.156C179.581 100.156 181.256 100.251 182.338 100.338C182.712 100.368 183.059 100.538 183.303 100.809C183.546 101.081 183.668 101.433 183.64 101.789L183.504 103.582L168.927 101.247Z" fill="#053F53"/>
<path d="M30.145 155.091H209.22L201.849 131.107H41.7745L30.145 155.091Z" fill="#053F53"/>
<g opacity="0.78">
<path d="M30.145 155.091H209.22L201.849 131.107H41.7745L30.145 155.091Z" fill="#0D0D0D"/>
</g>
<path d="M224.574 148.142C224.198 149.908 223.653 151.358 222.925 152.329C217.902 158.976 205.018 158.769 205.018 158.769C205.1 156.391 204.926 154.012 204.499 151.669C203.176 144.21 198.705 133.615 183.996 134.109C169.095 134.61 165.202 145.961 164.223 153.085C163.956 154.969 163.866 156.87 163.955 158.769H76.2834C76.2144 157.183 76.0354 155.604 75.7476 154.04C74.4074 146.391 69.7116 132.27 53.3533 133.639C38.5772 134.881 35.8397 146.941 35.5132 153.889C35.4206 155.517 35.4655 157.148 35.6472 158.769C35.6472 158.769 27.3844 157.623 23.1978 155.927C22.6223 155.695 22.1077 155.345 21.691 154.902C21.2743 154.459 20.9657 153.934 20.7874 153.364L20.4704 152.361L18.7197 146.829C18.5969 146.439 18.561 146.028 18.6143 145.624C18.6676 145.22 18.809 144.831 19.0294 144.481L20.3696 142.364C20.1597 141.165 20.0895 139.948 20.1603 138.734C20.2779 136.259 20.9891 133.019 23.5256 130.647L23.5425 130.631C24.7456 129.532 26.2013 128.714 27.7944 128.242C39.9755 124.453 63.8263 120.194 66.6726 119.311C72.3939 117.632 77.9114 115.38 83.1324 112.593C96.7351 105.317 117.881 98.9148 134.645 98.3371C161.428 97.4134 185.572 98.9657 223.796 116.406C223.796 116.406 223.855 116.804 223.947 117.513V117.52C224.205 119.519 224.734 123.984 225.085 129.126C225.52 135.605 225.662 143.151 224.574 148.142Z" fill="#DEE8F5"/>
<path d="M30.9674 133.281C30.9674 135.199 29.9294 137.914 20.1597 138.734C20.2772 136.258 20.9885 133.018 23.5249 130.646L23.5419 130.63C23.9771 130.63 30.9674 131.355 30.9674 133.281Z" fill="white"/>
<path d="M225.085 129.125H212.167C211.104 129.125 208.643 128.266 209.63 124.063C210.61 119.86 223.946 117.513 223.946 117.513V117.521C224.206 119.518 224.733 123.983 225.085 129.125Z" fill="#FD5D76"/>
<g opacity="0.76">
<path d="M176.152 104.727L174.906 116.755L134.846 118.339L136.729 100.198C137.592 100.174 138.462 100.158 139.341 100.158C156.963 100.158 166.834 101.902 176.152 104.727Z" fill="#0D0D0D"/>
</g>
<g opacity="0.76">
<path d="M186.935 116.302L176.831 116.684L178.011 105.317C181.682 106.523 185.229 108.044 188.609 109.863C191.774 111.566 190.568 116.167 186.935 116.302Z" fill="#0D0D0D"/>
</g>
<path d="M126.48 124.765H118.618C118.211 124.765 117.881 125.078 117.881 125.466C117.881 125.853 118.211 126.166 118.618 126.166H126.48C126.887 126.166 127.217 125.853 127.217 125.466C127.217 125.078 126.887 124.765 126.48 124.765Z" fill="#053F53"/>
<path d="M35.6475 158.769C35.6475 158.769 27.3846 157.623 23.1981 155.927C22.6225 155.695 22.108 155.345 21.6913 154.902C21.2746 154.459 20.966 153.934 20.7876 153.364L20.4707 152.361C23.3758 152.895 28.1391 153.531 35.5146 153.89C35.4217 155.517 35.4661 157.148 35.6475 158.769Z" fill="#053F53"/>
<path d="M164.223 153.085C163.956 154.969 163.866 156.87 163.955 158.769H76.2834C76.2144 157.183 76.0354 155.604 75.7476 154.04C104.061 153.801 139.97 153.363 164.223 153.085Z" fill="#053F53"/>
<path d="M224.574 148.142C224.198 149.908 223.653 151.357 222.925 152.329C217.902 158.975 205.017 158.768 205.017 158.768C205.099 156.391 204.926 154.012 204.499 151.668C212.334 150.951 220.438 149.837 224.574 148.142Z" fill="#053F53"/>
<path d="M131.601 155.578L130.923 155.556L133.526 118.041L134.204 118.062L131.601 155.578Z" fill="#053F53"/>
<path d="M81.2449 120.458H80.5654V155.927H81.2449V120.458Z" fill="#053F53"/>
<g opacity="0.76">
<path d="M134.803 100.271L132.919 118.412L81.223 120.442C81.0254 120.451 80.8303 120.398 80.6672 120.292C80.5042 120.185 80.3821 120.031 80.3195 119.853C80.257 119.674 80.2574 119.481 80.3208 119.303C80.3841 119.125 80.5069 118.972 80.6704 118.866C87.9455 114.224 107.729 101.584 134.803 100.271Z" fill="#0D0D0D"/>
</g>
<path d="M79.5294 119.157H83.6237C84.8184 119.157 85.9641 119.608 86.8088 120.411C87.6536 121.214 88.1281 122.304 88.1281 123.44C88.1281 123.791 87.9815 124.127 87.7204 124.376C87.4593 124.624 87.1052 124.763 86.736 124.763H79.5294C79.1601 124.763 78.806 124.624 78.545 124.376C78.2839 124.127 78.1372 123.791 78.1372 123.44V120.48C78.1372 120.129 78.2839 119.793 78.545 119.544C78.806 119.296 79.1601 119.157 79.5294 119.157Z" fill="#053F53"/>
<path d="M55.4424 166.843C64.5546 166.843 71.9415 159.819 71.9415 151.155C71.9415 142.491 64.5546 135.467 55.4424 135.467C46.3302 135.467 38.9434 142.491 38.9434 151.155C38.9434 159.819 46.3302 166.843 55.4424 166.843Z" fill="#0D0D0D"/>
<path d="M55.4425 141.117C57.5305 141.117 59.5715 141.706 61.3076 142.809C63.0437 143.912 64.3968 145.479 65.1958 147.313C65.9948 149.148 66.2039 151.166 65.7966 153.113C65.3892 155.06 64.3838 156.849 62.9074 158.252C61.431 159.656 59.5499 160.612 57.5021 160.999C55.4542 161.387 53.3316 161.188 51.4026 160.428C49.4736 159.669 47.8248 158.382 46.6648 156.731C45.5048 155.081 44.8856 153.14 44.8856 151.155C44.8888 148.493 46.0021 145.942 47.9812 144.06C49.9603 142.179 52.6436 141.12 55.4425 141.117ZM55.4425 140.062C53.1351 140.062 50.8794 140.713 48.9609 141.932C47.0423 143.15 45.5469 144.883 44.6639 146.91C43.7809 148.937 43.5499 151.167 44.0001 153.319C44.4503 155.471 45.5614 157.447 47.193 158.999C48.8247 160.55 50.9035 161.607 53.1666 162.035C55.4297 162.463 57.7755 162.243 59.9073 161.403C62.0391 160.564 63.8612 159.142 65.1431 157.318C66.425 155.493 67.1092 153.349 67.1092 151.155C67.1092 149.698 66.8074 148.255 66.2211 146.91C65.6348 145.564 64.7754 144.341 63.6921 143.311C62.6087 142.281 61.3226 141.464 59.9071 140.906C58.4917 140.349 56.9746 140.062 55.4425 140.062Z" fill="white"/>
<path d="M55.4422 153.797C56.9773 153.797 58.2218 152.614 58.2218 151.155C58.2218 149.695 56.9773 148.512 55.4422 148.512C53.9071 148.512 52.6626 149.695 52.6626 151.155C52.6626 152.614 53.9071 153.797 55.4422 153.797Z" fill="white"/>
<path d="M58.6626 140.589L55.9973 151.154H54.8877L52.2222 140.589H58.6626Z" fill="white"/>
<path d="M52.2222 161.72L54.8877 151.155H55.9973L58.6626 161.72H52.2222Z" fill="white"/>
<path d="M63.3208 159.211L55.1577 151.608L55.7279 150.703L66.6301 153.957L63.3208 159.211Z" fill="white"/>
<path d="M47.5647 143.1L55.7278 150.703L55.1576 151.608L44.2554 148.353L47.5647 143.1Z" fill="white"/>
<path d="M44.2554 153.957L55.1576 150.703L55.7278 151.608L47.5647 159.211L44.2554 153.957Z" fill="white"/>
<path d="M66.6301 148.353L55.7279 151.608L55.1577 150.703L63.3208 143.1L66.6301 148.353Z" fill="white"/>
<path d="M55.4425 152.512C56.2309 152.512 56.87 151.905 56.87 151.155C56.87 150.405 56.2309 149.798 55.4425 149.798C54.6542 149.798 54.0151 150.405 54.0151 151.155C54.0151 151.905 54.6542 152.512 55.4425 152.512Z" fill="#0D0D0D"/>
<path d="M184.36 166.843C193.473 166.843 200.859 159.819 200.859 151.155C200.859 142.491 193.473 135.467 184.36 135.467C175.248 135.467 167.861 142.491 167.861 151.155C167.861 159.819 175.248 166.843 184.36 166.843Z" fill="#0D0D0D"/>
<path d="M184.361 141.117C186.448 141.117 188.49 141.706 190.226 142.809C191.962 143.912 193.315 145.479 194.114 147.313C194.913 149.148 195.122 151.166 194.715 153.113C194.307 155.06 193.302 156.849 191.825 158.252C190.349 159.656 188.468 160.612 186.42 160.999C184.372 161.387 182.25 161.188 180.321 160.428C178.392 159.669 176.743 158.382 175.583 156.731C174.423 155.081 173.804 153.14 173.804 151.155C173.807 148.493 174.92 145.942 176.899 144.06C178.878 142.179 181.562 141.12 184.361 141.117ZM184.361 140.062C182.053 140.062 179.797 140.713 177.879 141.932C175.96 143.15 174.465 144.883 173.582 146.91C172.699 148.937 172.468 151.167 172.918 153.319C173.368 155.471 174.479 157.447 176.111 158.999C177.743 160.55 179.821 161.607 182.085 162.035C184.348 162.463 186.693 162.243 188.825 161.403C190.957 160.564 192.779 159.142 194.061 157.318C195.343 155.493 196.027 153.349 196.027 151.155C196.027 149.698 195.725 148.255 195.139 146.91C194.553 145.564 193.693 144.341 192.61 143.311C191.527 142.281 190.241 141.464 188.825 140.906C187.41 140.349 185.893 140.062 184.361 140.062Z" fill="white"/>
<path d="M184.361 153.797C185.896 153.797 187.14 152.614 187.14 151.155C187.14 149.695 185.896 148.512 184.361 148.512C182.826 148.512 181.581 149.695 181.581 151.155C181.581 152.614 182.826 153.797 184.361 153.797Z" fill="white"/>
<path d="M187.581 140.589L184.915 151.154H183.806L181.14 140.589H187.581Z" fill="white"/>
<path d="M181.14 161.72L183.806 151.155H184.915L187.581 161.72H181.14Z" fill="white"/>
<path d="M192.239 159.211L184.076 151.608L184.646 150.703L195.548 153.957L192.239 159.211Z" fill="white"/>
<path d="M176.483 143.1L184.646 150.703L184.076 151.608L173.173 148.353L176.483 143.1Z" fill="white"/>
<path d="M173.173 153.957L184.076 150.703L184.646 151.608L176.483 159.211L173.173 153.957Z" fill="white"/>
<path d="M195.548 148.353L184.646 151.608L184.076 150.703L192.239 143.1L195.548 148.353Z" fill="white"/>
<path d="M184.361 152.512C185.149 152.512 185.788 151.905 185.788 151.155C185.788 150.405 185.149 149.798 184.361 149.798C183.572 149.798 182.933 150.405 182.933 151.155C182.933 151.905 183.572 152.512 184.361 152.512Z" fill="#0D0D0D"/>
<path d="M134.803 100.27L136.729 100.199L134.845 118.34L132.919 118.411L134.803 100.27Z" fill="#053F53"/>
<path d="M174.326 136.508L173.572 137.04L175.353 116.656L176.056 116.712L174.326 136.508Z" fill="#053F53"/>
<path d="M176.152 104.728L178.011 105.317L176.83 116.684L174.905 116.755L176.152 104.728Z" fill="#053F53"/>
<path d="M162.771 96.5515C156.235 89.2381 146.986 84.7544 137.058 84.0868C127.131 83.4192 117.337 86.6223 109.833 92.9915C97.2947 103.634 93.4418 121.327 100.465 136.022C101.875 138.967 103.683 141.715 105.841 144.192L106.302 144.724L71.935 180.27C71.3065 180.929 70.9711 181.804 71.002 182.704C71.0328 183.604 71.4273 184.455 72.0995 185.072C72.7717 185.689 73.6671 186.022 74.5903 185.999C75.5136 185.975 76.3898 185.597 77.0279 184.946L111.387 149.406L111.961 149.825C119.375 155.245 128.586 157.799 137.818 156.995C147.05 156.19 155.65 152.084 161.96 145.468C168.27 138.852 171.845 130.194 171.995 121.162C172.145 112.13 168.86 103.363 162.772 96.5515H162.771ZM164.926 122.617C164.394 130.126 160.961 137.161 155.318 142.301C149.676 147.442 142.244 150.307 134.52 150.319C133.807 150.319 133.092 150.295 132.374 150.245C127.36 149.913 122.508 148.381 118.247 145.783C113.987 143.186 110.45 139.605 107.95 135.356C105.45 131.108 104.064 126.324 103.916 121.428C103.767 116.533 104.861 111.677 107.099 107.292C109.337 102.907 112.651 99.1286 116.747 96.2909C120.842 93.4531 125.593 91.6442 130.578 91.0246C135.563 90.405 140.628 90.9938 145.323 92.7388C150.019 94.4838 154.2 97.331 157.496 101.028C160.136 103.97 162.152 107.392 163.428 111.098C164.703 114.803 165.212 118.718 164.926 122.617Z" fill="#00ABB0"/>
</svg>
